<?xml version="1.0" encoding="UTF-8" standalone="no"?>
<!-- Created with Inkscape (http://www.inkscape.org/) -->

<svg
   width="704.57031"
   height="269.71005"
   viewBox="0 0 704.57031 269.71005"
   version="1.1"
   id="svg1"
   style="background-color:#89043d"
   xmlns="http://www.w3.org/2000/svg"
   xmlns:svg="http://www.w3.org/2000/svg">
  <defs
     id="defs1">
    <rect
       x="310.755"
       y="29.296768"
       width="468.74829"
       height="247.97623"
       id="rect2" />
  </defs>
  <g
     id="layer1"
     transform="translate(-20,-20)">
    <g
       id="g1"
       transform="matrix(1.4983892,0,0,1.4983892,-61.858124,-86.355785)">
      <rect
         style="display:inline;fill:#89043d;stroke-width:1.03426"
         id="rect12"
         width="180"
         height="180"
         x="54.630749"
         y="70.98008"
         ry="12.658347" />
      <path
         id="path1"
         style="fill:#ffffff;stroke-width:1.06656"
         d="m 144.52919,93.048442 v 0.041 l -73.158211,0.43164 24.4668,17.066398 -11.12891,16.8418 -5.03711,70.42384 8.67578,30.82226 8.28516,0.23633 27.484381,-104.0918 -7.88086,-16.59766 28.34375,-12.230468 1.36523,79.808598 3.94922,-0.28321 10.80469,-58.12695 8.07422,57.86523 5.77734,0.38477 6.13281,-55.58984 5.77344,56.14453 5.16211,0.79101 -1.41602,-63.07226 -10.10742,-5.10157 -8.88867,5.33789 -10.92773,-6.61914 -5.84766,7.09375 -1.00977,-21.576168 h -2.02148 z m 9.5,91.998048 5.05078,3.55663 c 0,0 6.67084,-3.79375 -5.05078,-3.55663 z m 22.76953,0.15039 5.05078,3.55664 c 0,0 6.67084,-3.79376 -5.05078,-3.55664 z m -46.82422,2.45702 c -0.026,-0.003 -0.0791,0.002 -0.19727,0.002 l 0.23633,0.0781 c -0.0122,-0.0343 -0.0115,-0.057 -0.0156,-0.0684 l -0.002,-0.002 v -0.002 h -0.002 v -0.002 h -0.002 l -0.002,-0.002 h -0.002 c -0.003,-0.001 -0.009,-0.003 -0.0137,-0.003 z m 0.0391,0.0801 c 0.0234,0.0656 0.098,0.18249 0.36914,0.39454 0.13986,0.1094 1.14372,0.20038 1.21289,0.23827 0.7649,0.4188 1.45132,1.01967 2.22266,1.42187 1.65754,0.86432 3.33737,1.67929 5.05273,2.3711 6.58495,2.65576 10.95971,3.88479 17.98633,5.45508 1.9911,0.44497 4.01307,0.67244 6.01562,1.03907 z m 32.85937,10.91993 1.8672,0.61914 c -0.33683,-0.15808 -0.65466,-0.39747 -1.01172,-0.47267 -0.28364,-0.0597 -0.57076,-0.0944 -0.85548,-0.14647 z m 54.61329,-5.07033 c -1.95667,0.22957 -5.04802,0.60235 -6.66797,0.71094 -10.06852,0.67503 -20.1211,0.26775 -29.70899,4.74219 z m -45.67383,3.55665 -5.25391,7.11328 7.67969,4.26758 6.26562,-4.50586 z m -39.8125,4.50391 0.82226,0.0742 c -0.26644,-0.042 -0.53774,-0.0742 -0.82226,-0.0742 z m 0.82226,0.0742 c 1.2293,0.1942 2.3094,0.76236 3.62305,1.11133 2.68015,0.71196 5.34244,1.67768 8.08398,1.89843 4.16742,0.33554 8.35532,-0.11729 12.53126,-0.23827 1.28132,-0.0371 2.55989,-0.15732 3.83984,-0.23634 z m 51.92579,1.34961 33.14258,1.42188 c -2.91378,0 -5.78119,-0.7198 -8.68946,-0.94727 -8.14899,-0.6374 -16.29196,-0.50488 -24.45312,-0.47461 z m -18.99805,4.50391 -25.66602,7.58788 c 9.04214,0 17.02342,-5.22243 25.66602,-7.58788 z m 18.59375,0.71289 25.29688,9.11718 c -8.30352,-3.44433 -16.57769,-7.6074 -25.29688,-9.11718 z m 25.29688,9.11718 c 0.66048,0.27397 1.32528,0.57715 1.98632,0.83984 3.03945,1.20786 2.26691,1.18556 3.63672,1.18556 z" />
    </g>
    <text
       xml:space="preserve"
       id="text2"
       style="font-size:53.3333px;font-family:sans;-inkscape-font-specification:'DejaVu Sans';text-align:start;writing-mode:lr-tb;direction:ltr;white-space:pre;shape-inside:url(#rect2);display:inline;fill:#FFFFFF"
       x="-234.37415"
       y="0"
       transform="translate(8.8535156,25.90625)"><tspan
         x="310.75586"
         y="100.07812"
         id="tspan3"><tspan
   style="font-weight:bold;font-size:80px;-inkscape-font-specification:'DejaVu Sans Bold'"
   id="tspan1">Trénovač</tspan>
</tspan><tspan
         x="320.75586"
         y="176.48435"
         id="tspan4">maturity</tspan></text>
  </g>
</svg>
